<svg width="16" height="16" rx="4" ry="4">
<!--   <rect width="16" height="16" fill="red" mask="url(#both)" /> -->
  <defs>
    <mask id="distmask">
      <circle cx="4.5" cy="4.5" r="8" fill="white" />
    </mask>
    <mask id="ivs_distmask">
      <rect width="16" height="16" fill="#fff" />
      <rect width="16" height="16" fill="#000" mask="url(#distmask)" />
    </mask>
    <mask id="unload">
      <path d="m9 14h6" stroke-dasharray="1 1" stroke-width="0.5" stroke="gray" fill="none" />
      <path d="m14 9v6" stroke-dasharray="1 1" stroke-width="0.5" stroke="gray" fill="none" />
      <path d="m9 9h6" stroke-dasharray="1 1" stroke-width="0.5" stroke="gray" fill="none" />
      <path d="m9 9v6" stroke-dasharray="1 1" stroke-width="0.5" stroke="gray" fill="none" />
    </mask>
    <mask id="both">
      <rect width="16" height="16" fill="#fff" />
      <rect x="9" y="9" height="5" width="5" fill="#000" />
      <rect width="16" height="16" fill="#fff" mask="url(#unload)" />
      <rect width="16" height="16" fill="#000" mask="url(#ivs_distmask)" />
    </mask>
  </defs>
  <rect x="2" y="2" height="5" width="5" fill="#708cea" />
  <rect x="9" y="2" height="5" width="5" fill="#708cea" />
  <rect x="2" y="9" height="5" width="5" fill="#708cea" />
  <rect x="9" y="9" height="5" width="5" fill="#708cea" />
  <!--<rect x="9" y="9" height="5" width="5" fill="#708cea" mask="url(#unload)" />-->
<!--   <rect x="9.25" y="9.25" height="4.5" width="4.5" fill="none" stroke-width="0.5" stroke="#708cea" opacity="0.5" /> -->
  <rect x="2" y="2" height="5" width="5" fill="#a5b7f3" mask="url(#distmask)" />
  <rect x="9" y="2" height="5" width="5" fill="#a5b7f3" mask="url(#distmask)" />
  <rect x="2" y="9" height="5" width="5" fill="#a5b7f3" mask="url(#distmask)" />
  <rect x="9" y="9" height="5" width="5" fill="#a5b7f3" mask="url(#distmask)" />
<!--   <rect x="9" y="9" height="5" width="5" fill="#a5b7f3" mask="url(#both)" /> -->
<!--   <rect x="9.25" y="9.25" height="4.5" width="4.5" fill="none" stroke-width="0.5" stroke="#a5b7f3" mask="url(#distmask)" /> -->
<!--   <rect x="9" y="9" height="5" width="5" fill="#a5b7f3" mask="url(#distmask)" /> -->
</svg>
